<svg width="43" height="47" viewBox="0 0 43 47" fill="none" xmlns="http://www.w3.org/2000/svg">
<path d="M38.0061 45.7892C18.434 43.7125 2.88711 26.5324 1.15964 4.99848C0.982988 2.79641 2.79086 0.999998 5 0.999998L15.375 0.999999C15.9273 0.999999 16.3733 1.44785 16.3909 1.99985C16.4948 5.26469 17.1058 8.38802 18.14 11.2779L14.2468 15.5509C17.277 22.5007 22.4104 28.135 28.7425 31.4608L32.6356 27.1878C35.2425 28.3116 38.0577 28.9801 41.0002 29.104C41.552 29.1272 42 29.5727 42 30.125L42 42C42 44.2091 40.2029 46.0223 38.0061 45.7892Z" stroke="white" stroke-width="2" stroke-linecap="round" stroke-linejoin="round"/>
</svg>
